<?xml version="1.0" encoding="UTF-8"?>
<svg xmlns="http://www.w3.org/2000/svg"
     viewBox="0 0 920 660" width="920" height="660"
     font-family="sans-serif"
     stroke="#333" stroke-width="2"
     fill="none" stroke-linecap="round" stroke-linejoin="round">
  <rect width="920" height="660" fill="white" stroke="none"/>

  <!-- Wires -->
  <line x1="195" y1="55" x2="600" y2="55"/>
  <line x1="397.5" y1="55" x2="397.5" y2="43"/>
  <line x1="387.5" y1="43" x2="407.5" y2="43"/>
  <text x="397.5" y="37" font-size="11" text-anchor="middle" fill="#333" stroke="none">VCC</text>
  <line x1="155" y1="110" x2="195" y2="110"/>
  <line x1="195" y1="110" x2="195" y2="55"/>
  <circle cx="195" cy="55" r="3.5" fill="#333" stroke="none"/>
  <line x1="610" y1="130" x2="600" y2="130"/>
  <line x1="600" y1="130" x2="600" y2="55"/>
  <circle cx="600" cy="55" r="3.5" fill="#333" stroke="none"/>
  <circle cx="270" cy="55" r="3.5" fill="#333" stroke="none"/>
  <circle cx="360" cy="55" r="3.5" fill="#333" stroke="none"/>
  <circle cx="455" cy="55" r="3.5" fill="#333" stroke="none"/>
  <circle cx="545" cy="55" r="3.5" fill="#333" stroke="none"/>
  <line x1="155" y1="175" x2="195" y2="175"/>
  <line x1="195" y1="175" x2="195" y2="183"/>
  <line x1="185" y1="183" x2="205" y2="183"/>
  <line x1="189" y1="188" x2="201" y2="188"/>
  <line x1="193" y1="193" x2="197" y2="193"/>
  <line x1="270" y1="145" x2="270" y2="153"/>
  <line x1="260" y1="153" x2="280" y2="153"/>
  <line x1="264" y1="158" x2="276" y2="158"/>
  <line x1="268" y1="163" x2="272" y2="163"/>
  <line x1="360" y1="145" x2="360" y2="153"/>
  <line x1="350" y1="153" x2="370" y2="153"/>
  <line x1="354" y1="158" x2="366" y2="158"/>
  <line x1="358" y1="163" x2="362" y2="163"/>
  <line x1="610" y1="195" x2="600" y2="195"/>
  <line x1="600" y1="195" x2="600" y2="203"/>
  <line x1="590" y1="203" x2="610" y2="203"/>
  <line x1="594" y1="208" x2="606" y2="208"/>
  <line x1="598" y1="213" x2="602" y2="213"/>
  <line x1="155" y1="260" x2="610" y2="260"/>
  <circle cx="455" cy="260" r="3.5" fill="#333" stroke="none"/>
  <line x1="155" y1="330" x2="610" y2="330"/>
  <circle cx="545" cy="330" r="3.5" fill="#333" stroke="none"/>
  <line x1="155" y1="400" x2="610" y2="400"/>
  <line x1="155" y1="460" x2="610" y2="460"/>
  <line x1="155" y1="520" x2="610" y2="520"/>

  <!-- J1 Header -->
  <rect x="20" y="85" width="95" height="520" fill="#f8f8f8" stroke="#333" stroke-width="2"/>
  <text x="67.5" y="77" font-size="14" font-weight="bold" text-anchor="middle" fill="#333" stroke="none">J1</text>
  <text x="67.5" y="63" font-size="10" text-anchor="middle" fill="#999" stroke="none">8-Pin Header</text>
  <text x="30" y="115" font-size="10" fill="#999" stroke="none">1</text>
  <text x="45" y="115" font-size="11" fill="#333" stroke="none">VCC</text>
  <circle cx="115" cy="110" r="4" fill="white" stroke="#333" stroke-width="1.5"/>
  <line x1="119" y1="110" x2="155" y2="110"/>
  <text x="30" y="180" font-size="10" fill="#999" stroke="none">2</text>
  <text x="45" y="180" font-size="11" fill="#333" stroke="none">GND</text>
  <circle cx="115" cy="175" r="4" fill="white" stroke="#333" stroke-width="1.5"/>
  <line x1="119" y1="175" x2="155" y2="175"/>
  <text x="30" y="265" font-size="10" fill="#999" stroke="none">3</text>
  <text x="45" y="265" font-size="11" fill="#333" stroke="none">SDA</text>
  <circle cx="115" cy="260" r="4" fill="white" stroke="#333" stroke-width="1.5"/>
  <line x1="119" y1="260" x2="155" y2="260"/>
  <text x="30" y="335" font-size="10" fill="#999" stroke="none">4</text>
  <text x="45" y="335" font-size="11" fill="#333" stroke="none">SCL</text>
  <circle cx="115" cy="330" r="4" fill="white" stroke="#333" stroke-width="1.5"/>
  <line x1="119" y1="330" x2="155" y2="330"/>
  <text x="30" y="405" font-size="10" fill="#999" stroke="none">5</text>
  <text x="45" y="405" font-size="11" fill="#333" stroke="none">ENA</text>
  <circle cx="115" cy="400" r="4" fill="white" stroke="#333" stroke-width="1.5"/>
  <line x1="119" y1="400" x2="155" y2="400"/>
  <text x="30" y="465" font-size="10" fill="#999" stroke="none">6</text>
  <text x="45" y="465" font-size="11" fill="#333" stroke="none">RST_N</text>
  <circle cx="115" cy="460" r="4" fill="white" stroke="#333" stroke-width="1.5"/>
  <line x1="119" y1="460" x2="155" y2="460"/>
  <text x="30" y="525" font-size="10" fill="#999" stroke="none">7</text>
  <text x="45" y="525" font-size="11" fill="#333" stroke="none">VIN</text>
  <circle cx="115" cy="520" r="4" fill="white" stroke="#333" stroke-width="1.5"/>
  <line x1="119" y1="520" x2="155" y2="520"/>
  <text x="30" y="585" font-size="10" fill="#999" stroke="none">8</text>
  <text x="45" y="585" font-size="11" fill="#333" stroke="none">(nc)</text>
  <circle cx="115" cy="580" r="4" fill="white" stroke="#333" stroke-width="1.5"/>

  <!-- U1 SE050 -->
  <rect x="650" y="90" width="190" height="470" fill="#f0f0f0" stroke="#333" stroke-width="2"/>
  <text x="745.0" y="112" font-size="14" font-weight="bold" text-anchor="middle" fill="#333" stroke="none">U1</text>
  <text x="745.0" y="129" font-size="11" text-anchor="middle" fill="#666" stroke="none">SE050C1HQ1</text>
  <text x="745.0" y="144" font-size="10" text-anchor="middle" fill="#999" stroke="none">QFN-20</text>
  <line x1="650" y1="130" x2="610" y2="130"/>
  <text x="613" y="134" font-size="10" fill="#999" stroke="none">18</text>
  <text x="680" y="135" font-size="11" fill="#333" stroke="none">VCC</text>
  <line x1="650" y1="195" x2="610" y2="195"/>
  <text x="613" y="199" font-size="10" fill="#999" stroke="none">19</text>
  <text x="680" y="200" font-size="11" fill="#333" stroke="none">GND</text>
  <line x1="650" y1="260" x2="610" y2="260"/>
  <text x="613" y="264" font-size="10" fill="#999" stroke="none">9</text>
  <text x="680" y="265" font-size="11" fill="#333" stroke="none">SDA</text>
  <line x1="650" y1="330" x2="610" y2="330"/>
  <text x="613" y="334" font-size="10" fill="#999" stroke="none">10</text>
  <text x="680" y="335" font-size="11" fill="#333" stroke="none">SCL</text>
  <line x1="650" y1="400" x2="610" y2="400"/>
  <text x="613" y="404" font-size="10" fill="#999" stroke="none">11</text>
  <text x="680" y="405" font-size="11" fill="#333" stroke="none">ENA</text>
  <line x1="650" y1="460" x2="610" y2="460"/>
  <text x="613" y="464" font-size="10" fill="#999" stroke="none">14</text>
  <text x="680" y="465" font-size="11" fill="#333" stroke="none">RST_N</text>
  <line x1="650" y1="520" x2="610" y2="520"/>
  <text x="613" y="524" font-size="10" fill="#999" stroke="none">12</text>
  <text x="680" y="525" font-size="11" fill="#333" stroke="none">VIN</text>

  <!-- C1 -->
  <line x1="270" y1="55" x2="270" y2="95.0"/>
  <line x1="260" y1="95.0" x2="280" y2="95.0"/>
  <line x1="260" y1="105.0" x2="280" y2="105.0"/>
  <line x1="270" y1="105.0" x2="270" y2="145"/>
  <text x="286" y="97.0" font-size="12" fill="#333" stroke="none">C1</text>
  <text x="286" y="113.0" font-size="11" fill="#666" stroke="none">100nF</text>

  <!-- C2 -->
  <line x1="360" y1="55" x2="360" y2="95.0"/>
  <line x1="350" y1="95.0" x2="370" y2="95.0"/>
  <line x1="350" y1="105.0" x2="370" y2="105.0"/>
  <line x1="360" y1="105.0" x2="360" y2="145"/>
  <text x="376" y="97.0" font-size="12" fill="#333" stroke="none">C2</text>
  <text x="376" y="113.0" font-size="11" fill="#666" stroke="none">10µF</text>

  <!-- R1 (SDA pull-up) -->
  <line x1="455" y1="55" x2="455" y2="133.5"/>
  <polyline points="455,133.5 463,141.5 447,149.5 463,157.5 447,165.5 463,173.5 455,181.5"/>
  <line x1="455" y1="181.5" x2="455" y2="260"/>
  <text x="469" y="152.5" font-size="12" fill="#333" stroke="none">R1</text>
  <text x="469" y="168.5" font-size="11" fill="#666" stroke="none">4.7kΩ</text>

  <!-- R2 (SCL pull-up) -->
  <line x1="545" y1="55" x2="545" y2="168.5"/>
  <polyline points="545,168.5 553,176.5 537,184.5 553,192.5 537,200.5 553,208.5 545,216.5"/>
  <line x1="545" y1="216.5" x2="545" y2="330"/>
  <text x="559" y="187.5" font-size="12" fill="#333" stroke="none">R2</text>
  <text x="559" y="203.5" font-size="11" fill="#666" stroke="none">4.7kΩ</text>

  <!-- Title -->
  <text x="460.0" y="632" font-size="13" text-anchor="middle" fill="#999" stroke="none">SE050 Breakout Board — Circuit Schematic</text>
  <a href="https://www.nxp.com/docs/en/data-sheet/SE050-DATASHEET.pdf" target="_blank"><text x="460.0" y="650" font-size="10" text-anchor="middle" fill="#07c" stroke="none">Datasheet: NXP SE050 (Rev 3.8)</text></a>
</svg>
